<?xml version="1.0" encoding="utf-8"?>
<!-- Svg Vector Icons : http://www.onlinewebfonts.com/icon -->
<!DOCTYPE svg PUBLIC "-//W3C//DTD SVG 1.1//EN" "http://www.w3.org/Graphics/SVG/1.1/DTD/svg11.dtd">
<svg version="1.1" xmlns="http://www.w3.org/2000/svg" xmlns:xlink="http://www.w3.org/1999/xlink" x="0px" y="0px" viewBox="0 0 256 256" enable-background="new 0 0 256 256" xml:space="preserve">
<metadata> Svg Vector Icons : http://www.onlinewebfonts.com/icon </metadata>
<g><g><path fill="#000000" d="M134.4,129c12.3-10.3,20.2-25.8,20.2-43.1c0-31-25.2-56.2-56.2-56.2c-31,0-56.2,25.2-56.2,56.2c0,17.3,7.9,32.8,20.2,43.1C31.6,142.8,10,173.7,10,209.7c0,2.3,0.2,4.6,0.3,7l0.7,9.6H176l9.7-0.5l0.7-9.7c0.2-2.1,0.3-4.2,0.3-6.4C186.8,173.7,165.2,142.8,134.4,129L134.4,129z M98.4,50.6c19.5,0,35.3,15.8,35.3,35.3s-15.8,35.3-35.3,35.3c-19.5,0-35.3-15.8-35.3-35.3C63,66.5,78.9,50.6,98.4,50.6L98.4,50.6z M31,205.4c2.2-35.3,31.6-63.2,67.4-63.2c35.8,0,65.2,28,67.4,63.2H31L31,205.4z"/><path fill="#000000" d="M173.6,92.9h62c5.8,0,10.4-4.7,10.4-10.4c0-5.8-4.7-10.4-10.4-10.4h-62c-5.8,0-10.4,4.7-10.4,10.4C163.2,88.2,167.9,92.9,173.6,92.9L173.6,92.9z"/><path fill="#000000" d="M235.6,112.5h-62c-5.8,0-10.4,4.7-10.4,10.4c0,5.8,4.7,10.4,10.4,10.4h62c5.8,0,10.4-4.7,10.4-10.4C246,117.2,241.3,112.5,235.6,112.5L235.6,112.5z"/><path fill="#000000" d="M235.6,153h-40.4c-5.8,0-10.4,4.7-10.4,10.4s4.7,10.4,10.4,10.4h40.4c5.8,0,10.4-4.7,10.4-10.4S241.3,153,235.6,153L235.6,153z"/></g></g>
</svg>